<svg width="339" height="251" viewBox="0 0 339 251" fill="none" xmlns="http://www.w3.org/2000/svg">
<rect x="73" width="185" height="180" rx="24" fill="#F6F6F6"/>
<path d="M97 49C97 42.4768 97 39.2152 98.0657 36.6424C99.4866 33.212 102.212 30.4866 105.642 29.0657C108.215 28 111.477 28 118 28H213C219.523 28 222.785 28 225.358 29.0657C228.788 30.4866 231.513 33.212 232.934 36.6424C234 39.2152 234 42.4768 234 49V184H97V49Z" fill="#FEFEFE"/>
<path d="M109 69C109 64.3406 109 62.0109 109.761 60.1732C110.776 57.7229 112.723 55.7761 115.173 54.7612C117.011 54 119.341 54 124 54H207C211.659 54 213.989 54 215.827 54.7612C218.277 55.7761 220.224 57.7229 221.239 60.1732C222 62.0109 222 64.3406 222 69V184H109V69Z" fill="#E8F2FF"/>
<rect x="147" y="40" width="4" height="4" rx="2" fill="#28AF60" fill-opacity="0.5"/>
<rect x="155" y="40" width="30" height="4" rx="2" fill="#28AF60" fill-opacity="0.5"/>
<rect x="120" y="92" width="24" height="24" rx="6" fill="#28AF60" fill-opacity="0.5"/>
<rect x="152" y="94" width="57" height="8" rx="3" fill="#28AF60" fill-opacity="0.5"/>
<rect x="152" y="108" width="42" height="6" rx="3" fill="#28AF60" fill-opacity="0.5"/>
<g filter="url(#filter0_d_32154_4972)">
<rect x="46" y="129" width="239" height="64" rx="12" fill="#FEFEFE"/>
<rect x="61" y="141" width="40" height="40" rx="20" fill="#66CB63"/>
<path d="M74 161L79 166L89 156" stroke="#FEFEFE" stroke-width="4" stroke-linecap="round" stroke-linejoin="round"/>
<rect x="113.62" y="142.99" width="118.917" height="16.322" rx="5.82927" fill="#2853AF"/>
<rect x="113.62" y="168.639" width="88.6049" height="11.6585" rx="4.66341" fill="#2853AF"/>
</g>
<path d="M140.5 72.5V69.3125C140.5 69.1042 140.542 68.9083 140.625 68.725C140.708 68.5417 140.833 68.3917 141 68.275V66.825C141 66.45 141.127 66.1354 141.381 65.8812C141.635 65.6271 141.95 65.5 142.325 65.5H144.575C144.758 65.5 144.929 65.5417 145.088 65.625C145.246 65.7083 145.383 65.8208 145.5 65.9625C145.617 65.8208 145.752 65.7083 145.906 65.625C146.06 65.5417 146.229 65.5 146.412 65.5H148.663C149.038 65.5 149.354 65.6271 149.613 65.8812C149.871 66.1354 150 66.45 150 66.825V68.275C150.167 68.3917 150.292 68.5417 150.375 68.725C150.458 68.9083 150.5 69.1042 150.5 69.3125V72.5H149.75V71.5H141.25V72.5H140.5ZM145.875 68.0625H149.25V66.825C149.25 66.6583 149.194 66.5208 149.081 66.4125C148.969 66.3042 148.829 66.25 148.663 66.25H146.375C146.233 66.25 146.115 66.3083 146.019 66.425C145.923 66.5417 145.875 66.675 145.875 66.825V68.0625ZM141.75 68.0625H145.125V66.825C145.125 66.675 145.077 66.5417 144.981 66.425C144.885 66.3083 144.767 66.25 144.625 66.25H142.325C142.167 66.25 142.031 66.3063 141.919 66.4187C141.806 66.5312 141.75 66.6667 141.75 66.825V68.0625ZM141.25 70.75H149.75V69.3125C149.75 69.1708 149.702 69.0521 149.606 68.9562C149.51 68.8604 149.392 68.8125 149.25 68.8125H141.75C141.608 68.8125 141.49 68.8604 141.394 68.9562C141.298 69.0521 141.25 69.1708 141.25 69.3125V70.75Z" fill="#9CA4AB"/>
<path d="M155.44 72V66.04H156.384V72H155.44ZM157.532 72V67.672H158.396V68.52L158.292 68.408C158.399 68.136 158.569 67.9307 158.804 67.792C159.039 67.648 159.311 67.576 159.62 67.576C159.94 67.576 160.223 67.6453 160.468 67.784C160.713 67.9227 160.905 68.1147 161.044 68.36C161.183 68.6053 161.252 68.888 161.252 69.208V72H160.356V69.448C160.356 69.2293 160.316 69.0453 160.236 68.896C160.156 68.7413 160.041 68.624 159.892 68.544C159.748 68.4587 159.583 68.416 159.396 68.416C159.209 68.416 159.041 68.4587 158.892 68.544C158.748 68.624 158.636 68.7413 158.556 68.896C158.476 69.0507 158.436 69.2347 158.436 69.448V72H157.532ZM163.819 72.096C163.377 72.096 162.987 71.9867 162.651 71.768C162.321 71.5493 162.089 71.256 161.955 70.888L162.651 70.56C162.769 70.8053 162.929 71 163.131 71.144C163.339 71.288 163.569 71.36 163.819 71.36C164.033 71.36 164.206 71.312 164.339 71.216C164.473 71.12 164.539 70.9893 164.539 70.824C164.539 70.7173 164.51 70.632 164.451 70.568C164.393 70.4987 164.318 70.4427 164.227 70.4C164.142 70.3573 164.054 70.3253 163.963 70.304L163.283 70.112C162.91 70.0053 162.63 69.8453 162.443 69.632C162.262 69.4133 162.171 69.16 162.171 68.872C162.171 68.6107 162.238 68.384 162.371 68.192C162.505 67.9947 162.689 67.8427 162.923 67.736C163.158 67.6293 163.422 67.576 163.715 67.576C164.11 67.576 164.462 67.6747 164.771 67.872C165.081 68.064 165.299 68.3333 165.427 68.68L164.731 69.008C164.646 68.8 164.51 68.6347 164.323 68.512C164.142 68.3893 163.937 68.328 163.707 68.328C163.51 68.328 163.353 68.376 163.235 68.472C163.118 68.5627 163.059 68.6827 163.059 68.832C163.059 68.9333 163.086 69.0187 163.139 69.088C163.193 69.152 163.262 69.2053 163.347 69.248C163.433 69.2853 163.521 69.3173 163.611 69.344L164.315 69.552C164.673 69.6533 164.947 69.8133 165.139 70.032C165.331 70.2453 165.427 70.5013 165.427 70.8C165.427 71.056 165.358 71.2827 165.219 71.48C165.086 71.672 164.899 71.824 164.659 71.936C164.419 72.0427 164.139 72.096 163.819 72.096ZM168.185 72.048C167.732 72.048 167.38 71.92 167.129 71.664C166.878 71.408 166.753 71.048 166.753 70.584V68.488H165.993V67.672H166.113C166.316 67.672 166.473 67.6133 166.585 67.496C166.697 67.3787 166.753 67.2187 166.753 67.016V66.68H167.657V67.672H168.641V68.488H167.657V70.544C167.657 70.6933 167.681 70.8213 167.729 70.928C167.777 71.0293 167.854 71.1093 167.961 71.168C168.068 71.2213 168.206 71.248 168.377 71.248C168.42 71.248 168.468 71.2453 168.521 71.24C168.574 71.2347 168.625 71.2293 168.673 71.224V72C168.598 72.0107 168.516 72.0213 168.425 72.032C168.334 72.0427 168.254 72.048 168.185 72.048ZM170.812 72.096C170.519 72.096 170.26 72.0453 170.036 71.944C169.818 71.8373 169.647 71.6933 169.524 71.512C169.402 71.3253 169.34 71.1067 169.34 70.856C169.34 70.6213 169.391 70.4107 169.492 70.224C169.599 70.0373 169.762 69.88 169.98 69.752C170.199 69.624 170.474 69.5333 170.804 69.48L172.308 69.232V69.944L170.98 70.176C170.74 70.2187 170.564 70.296 170.452 70.408C170.34 70.5147 170.284 70.6533 170.284 70.824C170.284 70.9893 170.346 71.1253 170.468 71.232C170.596 71.3333 170.759 71.384 170.956 71.384C171.202 71.384 171.415 71.3307 171.596 71.224C171.783 71.1173 171.927 70.976 172.028 70.8C172.13 70.6187 172.18 70.4187 172.18 70.2V69.088C172.18 68.8747 172.1 68.7013 171.94 68.568C171.786 68.4293 171.578 68.36 171.316 68.36C171.076 68.36 170.866 68.424 170.684 68.552C170.508 68.6747 170.378 68.8347 170.292 69.032L169.54 68.656C169.62 68.4427 169.751 68.256 169.932 68.096C170.114 67.9307 170.324 67.8027 170.564 67.712C170.81 67.6213 171.068 67.576 171.34 67.576C171.682 67.576 171.983 67.64 172.244 67.768C172.511 67.896 172.716 68.0747 172.86 68.304C173.01 68.528 173.084 68.7893 173.084 69.088V72H172.22V71.216L172.404 71.24C172.303 71.416 172.172 71.568 172.012 71.696C171.858 71.824 171.679 71.9227 171.476 71.992C171.279 72.0613 171.058 72.096 170.812 72.096ZM176.317 72.096C175.944 72.096 175.597 72.0267 175.277 71.888C174.957 71.744 174.685 71.5493 174.461 71.304C174.237 71.0587 174.072 70.776 173.965 70.456L174.765 70.12C174.909 70.488 175.12 70.7707 175.397 70.968C175.675 71.1653 175.995 71.264 176.357 71.264C176.571 71.264 176.757 71.232 176.917 71.168C177.077 71.0987 177.2 71.0027 177.285 70.88C177.376 70.7573 177.421 70.616 177.421 70.456C177.421 70.2373 177.36 70.064 177.237 69.936C177.115 69.808 176.933 69.7067 176.693 69.632L175.573 69.28C175.125 69.1413 174.784 68.9307 174.549 68.648C174.315 68.36 174.197 68.024 174.197 67.64C174.197 67.304 174.28 67.0107 174.445 66.76C174.611 66.504 174.837 66.304 175.125 66.16C175.419 66.016 175.752 65.944 176.125 65.944C176.483 65.944 176.808 66.008 177.101 66.136C177.395 66.2587 177.645 66.4293 177.853 66.648C178.067 66.8667 178.221 67.12 178.317 67.408L177.533 67.752C177.416 67.4373 177.232 67.1947 176.981 67.024C176.736 66.8533 176.451 66.768 176.125 66.768C175.928 66.768 175.755 66.8027 175.605 66.872C175.456 66.936 175.339 67.032 175.253 67.16C175.173 67.2827 175.133 67.4267 175.133 67.592C175.133 67.784 175.195 67.9547 175.317 68.104C175.44 68.2533 175.627 68.3653 175.877 68.44L176.917 68.768C177.392 68.912 177.749 69.12 177.989 69.392C178.229 69.6587 178.349 69.992 178.349 70.392C178.349 70.7227 178.261 71.016 178.085 71.272C177.915 71.528 177.677 71.7307 177.373 71.88C177.069 72.024 176.717 72.096 176.317 72.096ZM181.193 72.048C180.74 72.048 180.388 71.92 180.137 71.664C179.886 71.408 179.761 71.048 179.761 70.584V68.488H179.001V67.672H179.121C179.324 67.672 179.481 67.6133 179.593 67.496C179.705 67.3787 179.761 67.2187 179.761 67.016V66.68H180.665V67.672H181.649V68.488H180.665V70.544C180.665 70.6933 180.689 70.8213 180.737 70.928C180.785 71.0293 180.862 71.1093 180.969 71.168C181.076 71.2213 181.214 71.248 181.385 71.248C181.428 71.248 181.476 71.2453 181.529 71.24C181.582 71.2347 181.633 71.2293 181.681 71.224V72C181.606 72.0107 181.524 72.0213 181.433 72.032C181.342 72.0427 181.262 72.048 181.193 72.048ZM183.82 72.096C183.527 72.096 183.268 72.0453 183.044 71.944C182.825 71.8373 182.655 71.6933 182.532 71.512C182.409 71.3253 182.348 71.1067 182.348 70.856C182.348 70.6213 182.399 70.4107 182.5 70.224C182.607 70.0373 182.769 69.88 182.988 69.752C183.207 69.624 183.481 69.5333 183.812 69.48L185.316 69.232V69.944L183.988 70.176C183.748 70.2187 183.572 70.296 183.46 70.408C183.348 70.5147 183.292 70.6533 183.292 70.824C183.292 70.9893 183.353 71.1253 183.476 71.232C183.604 71.3333 183.767 71.384 183.964 71.384C184.209 71.384 184.423 71.3307 184.604 71.224C184.791 71.1173 184.935 70.976 185.036 70.8C185.137 70.6187 185.188 70.4187 185.188 70.2V69.088C185.188 68.8747 185.108 68.7013 184.948 68.568C184.793 68.4293 184.585 68.36 184.324 68.36C184.084 68.36 183.873 68.424 183.692 68.552C183.516 68.6747 183.385 68.8347 183.3 69.032L182.548 68.656C182.628 68.4427 182.759 68.256 182.94 68.096C183.121 67.9307 183.332 67.8027 183.572 67.712C183.817 67.6213 184.076 67.576 184.348 67.576C184.689 67.576 184.991 67.64 185.252 67.768C185.519 67.896 185.724 68.0747 185.868 68.304C186.017 68.528 186.092 68.7893 186.092 69.088V72H185.228V71.216L185.412 71.24C185.311 71.416 185.18 71.568 185.02 71.696C184.865 71.824 184.687 71.9227 184.484 71.992C184.287 72.0613 184.065 72.096 183.82 72.096ZM187.533 73.768C187.426 73.768 187.32 73.7573 187.213 73.736C187.112 73.72 187.018 73.6933 186.933 73.656V72.88C186.997 72.896 187.074 72.9093 187.165 72.92C187.256 72.936 187.344 72.944 187.429 72.944C187.68 72.944 187.864 72.888 187.981 72.776C188.104 72.6693 188.213 72.5013 188.309 72.272L188.597 71.616L188.581 72.376L186.709 67.672H187.677L189.061 71.28H188.733L190.109 67.672H191.085L189.173 72.472C189.072 72.728 188.944 72.952 188.789 73.144C188.64 73.3413 188.461 73.4933 188.253 73.6C188.05 73.712 187.81 73.768 187.533 73.768Z" fill="#9CA4AB"/>
<defs>
<filter id="filter0_d_32154_4972" x="0" y="87" width="339" height="164" filterUnits="userSpaceOnUse" color-interpolation-filters="sRGB">
<feFlood flood-opacity="0" result="BackgroundImageFix"/>
<feColorMatrix in="SourceAlpha" type="matrix" values="0 0 0 0 0 0 0 0 0 0 0 0 0 0 0 0 0 0 127 0" result="hardAlpha"/>
<feOffset dx="4" dy="8"/>
<feGaussianBlur stdDeviation="25"/>
<feComposite in2="hardAlpha" operator="out"/>
<feColorMatrix type="matrix" values="0 0 0 0 0.0705883 0 0 0 0 0.0980393 0 0 0 0 0.2 0 0 0 0.08 0"/>
<feBlend mode="normal" in2="BackgroundImageFix" result="effect1_dropShadow_32154_4972"/>
<feBlend mode="normal" in="SourceGraphic" in2="effect1_dropShadow_32154_4972" result="shape"/>
</filter>
</defs>
</svg>
