<svg width="25" height="25" viewBox="0 0 25 25" fill="none" xmlns="http://www.w3.org/2000/svg">
<path d="M18.7915 14.1144C18.354 14.5415 18.104 15.1561 18.1665 15.8123C18.2603 16.9373 19.2915 17.7602 20.4165 17.7602H22.3957V18.9998C22.3957 21.1561 20.6353 22.9165 18.479 22.9165H6.52067C4.36442 22.9165 2.604 21.1561 2.604 18.9998V11.9894C2.604 9.83318 4.36442 8.07275 6.52067 8.07275H18.479C20.6353 8.07275 22.3957 9.83318 22.3957 11.9894V13.4894H20.2915C19.7082 13.4894 19.1769 13.7186 18.7915 14.1144Z" stroke="#171725" stroke-width="1.5625" stroke-linecap="round" stroke-linejoin="round"/>
<path d="M2.604 12.927V8.16662C2.604 6.92704 3.36442 5.82283 4.52067 5.38533L12.7915 2.26033C14.0832 1.77074 15.4686 2.72911 15.4686 4.11452V8.07284" stroke="#171725" stroke-width="1.5625" stroke-linecap="round" stroke-linejoin="round"/>
<path d="M23.4986 14.5522V16.6981C23.4986 17.271 23.0403 17.7397 22.4569 17.7606H20.4153C19.2903 17.7606 18.259 16.9376 18.1653 15.8126C18.1028 15.1564 18.3528 14.5418 18.7903 14.1147C19.1757 13.7189 19.7069 13.4897 20.2903 13.4897H22.4569C23.0403 13.5106 23.4986 13.9793 23.4986 14.5522Z" stroke="#171725" stroke-width="1.5625" stroke-linecap="round" stroke-linejoin="round"/>
<path d="M7.2915 12.5H14.5832" stroke="#171725" stroke-width="1.5625" stroke-linecap="round" stroke-linejoin="round"/>
</svg>
