<svg width="14" height="12" viewBox="0 0 14 12" fill="none" xmlns="http://www.w3.org/2000/svg">
<path fill-rule="evenodd" clip-rule="evenodd" d="M10.7909 7.281C12.0779 7.281 13.1249 8.32275 13.1249 9.603C13.1249 10.8832 12.0779 11.925 10.7909 11.925C9.50318 11.925 8.45543 10.8832 8.45543 9.603C8.45543 8.32275 9.50318 7.281 10.7909 7.281ZM10.7909 8.406C10.1234 8.406 9.58043 8.943 9.58043 9.603C9.58043 10.2637 10.1234 10.8 10.7909 10.8C11.4577 10.8 11.9999 10.2637 11.9999 9.603C11.9999 8.943 11.4577 8.406 10.7909 8.406ZM5.31023 9.0696C5.62072 9.0696 5.87273 9.3216 5.87273 9.6321C5.87273 9.9426 5.62072 10.1946 5.31023 10.1946H0.584475C0.273975 10.1946 0.021975 9.9426 0.021975 9.6321C0.021975 9.3216 0.273975 9.0696 0.584475 9.0696H5.31023ZM2.33475 0C3.6225 0 4.6695 1.0425 4.6695 2.32275C4.6695 3.603 3.6225 4.644 2.33475 4.644C1.04775 4.644 0 3.603 0 2.32275C0 1.0425 1.04775 0 2.33475 0ZM2.33475 1.125C1.668 1.125 1.125 1.662 1.125 2.32275C1.125 2.98275 1.668 3.519 2.33475 3.519C3.00225 3.519 3.5445 2.98275 3.5445 2.32275C3.5445 1.662 3.00225 1.125 2.33475 1.125ZM12.1433 1.8003C12.4538 1.8003 12.7058 2.0523 12.7058 2.3628C12.7058 2.6733 12.4538 2.9253 12.1433 2.9253H7.41832C7.10782 2.9253 6.85582 2.6733 6.85582 2.3628C6.85582 2.0523 7.10782 1.8003 7.41832 1.8003H12.1433Z" fill="#171725"/>
</svg>
