<svg width="12" height="15" viewBox="0 0 12 15" fill="none" xmlns="http://www.w3.org/2000/svg">
<path fill-rule="evenodd" clip-rule="evenodd" d="M0 5.92867C0 2.66267 2.60333 0 5.83333 0C9.06333 0 11.6667 2.66267 11.6667 5.92867C11.6667 7.50533 11.2173 9.19867 10.4227 10.6613C9.62933 12.122 8.47067 13.3913 7.02 14.0693C6.64854 14.2431 6.24344 14.3332 5.83333 14.3332C5.42322 14.3332 5.01812 14.2431 4.64667 14.0693C3.196 13.3913 2.03733 12.1227 1.244 10.6613C0.449333 9.19867 0 7.50533 0 5.92867ZM5.83333 1C3.172 1 1 3.198 1 5.92867C1 7.32667 1.402 8.85667 2.12267 10.184C2.844 11.5127 3.864 12.6 5.06933 13.1633C5.30834 13.2753 5.56906 13.3334 5.833 13.3334C6.09694 13.3334 6.35766 13.2753 6.59667 13.1633C7.80267 12.6 8.82267 11.5127 9.544 10.184C10.2647 8.85733 10.6667 7.32667 10.6667 5.92867C10.6667 3.198 8.49467 1 5.83333 1ZM5.83333 4.33333C5.63635 4.33333 5.4413 4.37213 5.25931 4.44751C5.07732 4.5229 4.91196 4.63339 4.77267 4.77267C4.63339 4.91196 4.5229 5.07732 4.44751 5.25931C4.37213 5.4413 4.33333 5.63635 4.33333 5.83333C4.33333 6.03032 4.37213 6.22537 4.44751 6.40736C4.5229 6.58935 4.63339 6.7547 4.77267 6.89399C4.91196 7.03328 5.07732 7.14377 5.25931 7.21915C5.4413 7.29453 5.63635 7.33333 5.83333 7.33333C6.23116 7.33333 6.61269 7.1753 6.89399 6.89399C7.1753 6.61269 7.33333 6.23116 7.33333 5.83333C7.33333 5.43551 7.1753 5.05398 6.89399 4.77267C6.61269 4.49137 6.23116 4.33333 5.83333 4.33333ZM3.33333 5.83333C3.33333 5.17029 3.59673 4.53441 4.06557 4.06557C4.53441 3.59673 5.17029 3.33333 5.83333 3.33333C6.49637 3.33333 7.13226 3.59673 7.6011 4.06557C8.06994 4.53441 8.33333 5.17029 8.33333 5.83333C8.33333 6.49637 8.06994 7.13226 7.6011 7.6011C7.13226 8.06994 6.49637 8.33333 5.83333 8.33333C5.17029 8.33333 4.53441 8.06994 4.06557 7.6011C3.59673 7.13226 3.33333 6.49637 3.33333 5.83333Z" fill="#78828A"/>
</svg>
