<svg width="40" height="24" viewBox="0 0 40 24" fill="none" xmlns="http://www.w3.org/2000/svg">
<path d="M26 22V2L20 2.5L14 2V22L20 21.5L26 22Z" fill="#FF5F00"/>
<path d="M15.2921 12C15.2921 8.16667 17.1478 4.76667 20 2.56667C17.9038 0.966667 15.2577 0 12.3711 0C5.53265 0 0 5.36667 0 12C0 18.6333 5.53265 24 12.3711 24C15.2577 24 17.9038 23.0333 20 21.4333C17.1478 19.2667 15.2921 15.8333 15.2921 12Z" fill="#EB001B"/>
<path d="M40 12C40 18.6333 34.4674 24 27.6289 24C24.7423 24 22.0962 23.0333 20 21.4333C22.8866 19.2333 24.7079 15.8333 24.7079 12C24.7079 8.16667 22.8522 4.76667 20 2.56667C22.0962 0.966667 24.7423 0 27.6289 0C34.4674 0 40 5.4 40 12Z" fill="#F79E1B"/>
</svg>
