<!-- <svg width="40" height="24" viewBox="0 0 40 24" fill="none" xmlns="http://www.w3.org/2000/svg">
<path fill-rule="evenodd" clip-rule="evenodd" d="M10.0004 18.0391H6.53867L3.94278 7.84438C3.81957 7.37542 3.55796 6.96084 3.17313 6.76544C2.21275 6.27439 1.15448 5.88359 0 5.68649V5.29399H5.57661C6.34626 5.29399 6.9235 5.88359 7.0197 6.56834L8.3666 13.9221L11.8267 5.29399H15.1922L10.0004 18.0391ZM17.116 18.0391H13.8467L16.5388 5.29399H19.8081L17.116 18.0391ZM24.0378 8.82473C24.1341 8.13828 24.7113 7.74578 25.3847 7.74578C26.443 7.64724 27.5958 7.84433 28.5579 8.33368L29.1351 5.5896C28.173 5.1971 27.1148 5 26.1544 5C22.9813 5 20.6723 6.76539 20.6723 9.21553C20.6723 11.0795 22.3078 12.0582 23.4623 12.6478C24.7113 13.2357 25.1923 13.6282 25.0961 14.216C25.0961 15.0979 24.1341 15.4904 23.1737 15.4904C22.0192 15.4904 20.8647 15.1964 19.8081 14.7054L19.2309 17.4512C20.3854 17.9405 21.6344 18.1376 22.7889 18.1376C26.3468 18.2345 28.5579 16.4708 28.5579 13.8236C28.5579 10.4899 24.0378 10.2945 24.0378 8.82473ZM40.0003 18.0391L37.4044 5.29399H34.6161C34.0389 5.29399 33.4617 5.68649 33.2692 6.27439L28.4623 18.0391H31.8278L32.4996 16.1769H36.6348L37.0196 18.0391H40.0003ZM35.0965 8.72612L36.0569 13.5295H33.3648L35.0965 8.72612Z" fill="#172B85"/>
</svg> -->
<svg width="40" height="24" viewBox="0 0 40 24" xmlns="http://www.w3.org/2000/svg">
<path d="M10.0004 18.0391H6.53867L3.94278 7.84438C3.81957 7.37542 3.55796 6.96084 3.17313 6.76544C2.21275 6.27439 1.15448 5.88359 0 5.68649V5.29399H5.57661C6.34626 5.29399 6.9235 5.88359 7.0197 6.56834L8.3666 13.9221L11.8267 5.29399H15.1922L10.0004 18.0391ZM17.116 18.0391H13.8467L16.5388 5.29399H19.8081L17.116 18.0391ZM24.0378 8.82473C24.1341 8.13828 24.7113 7.74578 25.3847 7.74578C26.443 7.64724 27.5958 7.84433 28.5579 8.33368L29.1351 5.5896C28.173 5.1971 27.1148 5 26.1544 5C22.9813 5 20.6723 6.76539 20.6723 9.21553C20.6723 11.0795 22.3078 12.0582 23.4623 12.6478C24.7113 13.2357 25.1923 13.6282 25.0961 14.216C25.0961 15.0979 24.1341 15.4904 23.1737 15.4904C22.0192 15.4904 20.8647 15.1964 19.8081 14.7054L19.2309 17.4512C20.3854 17.9405 21.6344 18.1376 22.7889 18.1376C26.3468 18.2345 28.5579 16.4708 28.5579 13.8236C28.5579 10.4899 24.0378 10.2945 24.0378 8.82473ZM40.0003 18.0391L37.4044 5.29399H34.6161C34.0389 5.29399 33.4617 5.68649 33.2692 6.27439L28.4623 18.0391H31.8278L32.4996 16.1769H36.6348L37.0196 18.0391H40.0003ZM35.0965 8.72612L36.0569 13.5295H33.3648L35.0965 8.72612Z" fill="#172B85"/>
</svg>